HIERARCHY
ROOT hip
{
  OFFSET 0 0 0
  CHANNELS 6 Xposition Yposition Zposition Zrotation Yrotation Xrotation
  JOINT abdomen
  {
    OFFSET 0 20.6881 -0.73152
    CHANNELS 3 Zrotation Xrotation Yrotation
    JOINT chest
    {
      OFFSET 0 11.7043 -0.48768
      CHANNELS 3 Zrotation Xrotation Yrotation
      JOINT neck
      {
        OFFSET 0 22.1894 -2.19456
        CHANNELS 3 Zrotation Xrotation Yrotation
        JOINT head
        {
          OFFSET -0.24384 7.07133 1.2192
          CHANNELS 3 Zrotation Xrotation Yrotation
          JOINT leftEye
          {
            OFFSET 4.14528 8.04674 8.04672
            CHANNELS 3 Zrotation Xrotation Yrotation
            End Site
            {
              OFFSET 1 0 0
            }
          }
          JOINT rightEye
          {
            OFFSET -3.6576 8.04674 8.04672
            CHANNELS 3 Zrotation Xrotation Yrotation
            End Site
            {
              OFFSET 1 0 0
            }
          }
        }
      }
      JOINT rCollar
      {
        OFFSET -2.68224 19.2634 -4.8768
        CHANNELS 3 Zrotation Xrotation Yrotation
        JOINT rShldr
        {
          OFFSET -8.77824 -1.95073 1.46304
          CHANNELS 3 Zrotation Xrotation Yrotation
          JOINT rForeArm
          {
            OFFSET -28.1742 -1.7115 0.48768
            CHANNELS 3 Zrotation Xrotation Yrotation
            JOINT rHand
            {
              OFFSET -22.5879 0.773209 7.07136
              CHANNELS 3 Zrotation Xrotation Yrotation
              JOINT rThumb1
              {
                OFFSET -1.2192 -0.487915 3.41376
                CHANNELS 3 Zrotation Xrotation Yrotation
                JOINT rThumb2
                {
                  OFFSET -3.37035 -0.52449 3.41376
                  CHANNELS 3 Zrotation Xrotation Yrotation
                  End Site
                  {
                    OFFSET -1.78271 -1.18214 1.43049
                  }
                }
              }
              JOINT rIndex1
              {
                OFFSET -7.75947 0.938293 5.60832
                CHANNELS 3 Zrotation Xrotation Yrotation
                JOINT rIndex2
                {
                  OFFSET -2.54057 -0.884171 1.56538
                  CHANNELS 3 Zrotation Xrotation Yrotation
                  End Site
                  {
                    OFFSET -1.62519 -0.234802 1.16502
                  }
                }
              }
              JOINT rMid1
              {
                OFFSET -8.24714 1.18213 3.41376
                CHANNELS 3 Zrotation Xrotation Yrotation
                JOINT rMid2
                {
                  OFFSET -3.10165 -0.590103 1.0647
                  CHANNELS 3 Zrotation Xrotation Yrotation
                  End Site
                  {
                    OFFSET -2.48547 -0.328903 0.83742
                  }
                }
              }
              JOINT rRing1
              {
                OFFSET -8.82822 0.546677 1.51678
                CHANNELS 3 Zrotation Xrotation Yrotation
                JOINT rRing2
                {
                  OFFSET -2.60934 -0.819778 -0.0198488
                  CHANNELS 3 Zrotation Xrotation Yrotation
                  End Site
                  {
                    OFFSET -2.33842 -0.294052 0.168128
                  }
                }
              }
              JOINT rPinky1
              {
                OFFSET -8.27202 -0.0477905 -0.4584
                CHANNELS 3 Zrotation Xrotation Yrotation
                JOINT rPinky2
                {
                  OFFSET -1.82734 -0.647385 -0.700984
                  CHANNELS 3 Zrotation Xrotation Yrotation
                  End Site
                  {
                    OFFSET -1.69225 -0.51767 -0.607171
                  }
                }
              }
            }
          }
        }
      }
      JOINT lCollar
      {
        OFFSET 2.68224 19.2634 -4.8768
        CHANNELS 3 Zrotation Xrotation Yrotation
        JOINT lShldr
        {
          OFFSET 8.77824 -1.95073 1.46304
          CHANNELS 3 Zrotation Xrotation Yrotation
          JOINT lForeArm
          {
            OFFSET 28.1742 -1.7115 0.48768
            CHANNELS 3 Zrotation Xrotation Yrotation
            JOINT lHand
            {
              OFFSET 22.5879 0.773209 7.07136
              CHANNELS 3 Zrotation Xrotation Yrotation
              JOINT lThumb1
              {
                OFFSET 1.2192 -0.487915 3.41376
                CHANNELS 3 Zrotation Xrotation Yrotation
                JOINT lThumb2
                {
                  OFFSET 3.37035 -0.52449 3.41376
                  CHANNELS 3 Zrotation Xrotation Yrotation
                  End Site
                  {
                    OFFSET 1.78271 -1.18214 1.43049
                  }
                }
              }
              JOINT lIndex1
              {
                OFFSET 7.75947 0.938293 5.60832
                CHANNELS 3 Zrotation Xrotation Yrotation
                JOINT lIndex2
                {
                  OFFSET 2.54057 -0.884171 1.56538
                  CHANNELS 3 Zrotation Xrotation Yrotation
                  End Site
                  {
                    OFFSET 1.62519 -0.234802 1.16502
                  }
                }
              }
              JOINT lMid1
              {
                OFFSET 8.24714 1.18213 3.41376
                CHANNELS 3 Zrotation Xrotation Yrotation
                JOINT lMid2
                {
                  OFFSET 3.10165 -0.590103 1.0647
                  CHANNELS 3 Zrotation Xrotation Yrotation
                  End Site
                  {
                    OFFSET 2.48547 -0.328903 0.83742
                  }
                }
              }
              JOINT lRing1
              {
                OFFSET 8.82822 0.546677 1.51678
                CHANNELS 3 Zrotation Xrotation Yrotation
                JOINT lRing2
                {
                  OFFSET 2.60934 -0.819778 -0.0198488
                  CHANNELS 3 Zrotation Xrotation Yrotation
                  End Site
                  {
                    OFFSET 2.33842 -0.294052 0.168128
                  }
                }
              }
              JOINT lPinky1
              {
                OFFSET 8.27202 -0.0477905 -0.4584
                CHANNELS 3 Zrotation Xrotation Yrotation
                JOINT lPinky2
                {
                  OFFSET 1.82734 -0.647385 -0.700984
                  CHANNELS 3 Zrotation Xrotation Yrotation
                  End Site
                  {
                    OFFSET 1.69225 -0.51767 -0.607171
                  }
                }
              }
            }
          }
        }
      }
    }
  }
  JOINT rButtock
  {
    OFFSET -8.77824 4.35084 1.2192
    CHANNELS 3 Zrotation Xrotation Yrotation
    JOINT rThigh
    {
      OFFSET 0 -1.70687 -2.19456
      CHANNELS 3 Zrotation Xrotation Yrotation
      JOINT rShin
      {
        OFFSET 0 -36.8199 0.73152
        CHANNELS 3 Zrotation Xrotation Yrotation
        JOINT rFoot
        {
          OFFSET 0.73152 -45.1104 -5.12064
          CHANNELS 3 Zrotation Xrotation Yrotation
          End Site
          {
            OFFSET -1.1221 -3.69964 12.103
          }
        }
      }
    }
  }
  JOINT lButtock
  {
    OFFSET 8.77824 4.35084 1.2192
    CHANNELS 3 Zrotation Xrotation Yrotation
    JOINT lThigh
    {
      OFFSET 0 -1.70687 -2.19456
      CHANNELS 3 Zrotation Xrotation Yrotation
      JOINT lShin
      {
        OFFSET 0 -36.8199 0.73152
        CHANNELS 3 Zrotation Xrotation Yrotation
        JOINT lFoot
        {
          OFFSET -0.73152 -45.1104 -5.12064
          CHANNELS 3 Zrotation Xrotation Yrotation
          End Site
          {
            OFFSET 1.1221 -3.69964 12.103
          }
        }
      }
    }
  }
}
MOTION
Frames:	4
Frame Time:	0.03333
-16.996177844703197 51.17529034614563 -14.045620709657669 -2.6314368860097823 -3.9288976997547005 3.2002189681518898 -4.702246295416217 21.463613334671194 -0.2181015071953546 4.17693559257689 -13.528063915424015 0.29269527044132 2.4666067055342147 12.61339401007988 8.158345921104765 -1.7663475372941813 -27.868300502412367 15.95282717455544 -0.04907971166330178 0.15488361077503054 0.24668001919867966 0.027080205955219618 0.17718209734185944 -0.16121476924880926 0.12206105667725495 -0.24482837092294507 -0.018656388243518764 61.68089073382474 33.866311376781816 2.0271884062721486 -28.30682084524199 -38.66142860811634 79.2716262996532 -2.535355120851332 -24.63976399684843 -4.243337837914108 -0.5739530155914835 -0.21908840282935532 -0.008143533161785711 -0.06828438934037935 0.0775343331064278 -0.4843933873993077 0.1686840079930413 0.15587590919538646 -0.3685802195848955 7.301019722711118 5.063932986498719 0.36303933534242844 0.19851304492407373 -0.31909192387100943 -0.043437468480768786 2.112142512612179 0.6739941560344255 -0.2121047078257892 -0.34373855476929466 0.4570750853184897 0.03416407261987487 9.382420834529539 1.0497244097415608 0.2672380348267718 0.29445801953613865 0.05628983010589649 -0.2025200714501969 2.2817568137145168 -0.9016688537024273 -0.730388520051135 -0.2724307395041269 0.30145141287471766 0.4921215330017656 -19.10853849564141 -1.220926196217398 -93.99579294252986 20.004380984538404 -15.959834948643872 -41.16635608998891 -0.8940884643016239 -20.120239775882037 4.834008328468579 -0.2550814720429127 0.1317350324607995 0.5477894957280736 -0.037750775707777816 0.13065927766652252 0.5292439313059022 -0.05826471527138221 -0.21342257414984464 0.8440606370041597 -6.92337685595382 4.961600104145826 -0.3342569715408476 -0.0044588862284018396 -0.6309212755810326 0.09188424038750724 -2.4337878600157152 0.5202191703390526 -0.14334432633741134 -0.17668594813168148 0.4035296038767632 0.3904348238969529 -9.844413122441908 0.3474744014410272 -0.26865449866675606 -0.6396609828717399 -0.36511984831621136 -0.1332971180683226 -1.8125251656121681 -0.8553102253714352 -0.28520244620011026 -0.057198992317448655 0.22163633019403456 0.04591626686052806 -70.87135422437295 -66.90424375064615 -57.5221661331224 -175.63270009138014 80.07541662155865 177.0554558162505 -9.625269918016635 -27.97466020816781 -14.613893238726792 0.05075881762121421 -0.1874770467107066 -0.20560587621201462 77.66744025985983 -45.6652446019254 70.18811674131823 175.99467279663415 76.66883245225812 -177.3252209677093 7.83969454443522 -23.82833410835633 10.90273129754152
-18.020068295300007 51.04597210884094 -15.406960248947144 -2.4055761905358004 -2.368199474406787 3.3871629532824317 -4.48161410975188 21.857848438469745 0.5384798945284933 3.5827108423330736 -13.358832318358608 0.46920272652008205 2.3205956172127364 12.861194126941589 8.697506540033585 -2.0929031503807223 -28.337373988946748 16.958733039285313 -0.14656315970548564 0.17874316909317758 -0.020441422164525897 -0.029210157759205782 0.3957037545526624 -0.11550671643626079 0.11708024794672893 -0.2540303432822447 0.04593948550164214 57.49615677276299 33.320121639423405 9.044708961207428 -28.214032725367368 -38.04195435605828 78.01558183204455 -2.197522011671454 -19.37349690147184 -3.1401066867100194 -0.575115908658531 -0.4479939752909875 -0.10946837564271995 -0.13951056250062435 0.1516386839498927 -0.5276523905075835 0.32340380094969734 0.2667467414542069 -0.3735587871596001 7.238050501205477 5.011542020470136 0.3904177751044543 0.2289590400362287 -0.2684945228297897 0.04281842922638349 1.986548140380338 0.5661747107873083 -0.17853358100323605 -0.3866721633966428 0.482092787587777 -0.030779500442721992 9.391592071037573 0.9796157195625533 0.17033878140203557 0.2123979123722105 -0.1324645820415215 -0.16164960683901577 2.401801230358899 -0.9345318820071206 -0.5296373075134126 -0.3049027394788369 0.2706581453319499 0.5263684216653268 -12.457050979978288 -2.7997718073032125 -96.54545474837143 22.16745749845184 -19.960553368181728 -48.795247090975444 -0.11025423426345488 -27.419760272070338 5.224762597111362 -0.16718803648224986 0.2643208503600888 0.6459807221230001 -0.19904793411345034 0.11080343750161943 0.5228073317868115 -0.1656367831278636 -0.3401805331398205 0.9215741593779602 -7.071045545809496 4.987500181478514 -0.3185416667560003 -0.12579463551273962 -0.6280530763773032 0.11239700601234803 -2.5350462682348005 0.6687545471673795 -0.013281302841089795 -0.18356885782435028 0.31010126048915704 0.4768733491231237 -9.877145096491901 0.40646887973654294 -0.35621325495808825 -0.6933489377906847 -0.4488311537119901 -0.17556339586941933 -1.768305773873565 -0.8499419101272168 -0.170551477761658 0.028820623533103492 0.19596586461133497 0.04997137151510579 -71.17108341572062 -66.34192793665733 -58.29307592436339 -175.46369389055735 80.55377575026966 176.71034001786808 -9.00210651003312 -27.963977792305908 -13.259899589551914 0.10022203373424163 0.08323664726910251 -0.24100717356701384 78.70937195736693 -45.95267603767246 70.58675390203686 175.96808970038444 77.79157211783564 -177.19625333580112 7.460942625711442 -23.855268959348276 11.06678475744241
-18.920892290771008 50.774937868118286 -17.215484380722046 -0.6727204858367768 -0.5442964942978468 4.1035695424940215 -4.378156807506874 21.862412712382607 1.5474327173192794 2.7043120162460563 -13.351064685725012 0.7799312971958224 2.0545371240391144 12.844050352124857 9.34542340734287 -2.933000196593012 -28.4058073617884 17.63985657879191 -0.0751738090571008 0.1919186040021322 -0.2823988136283787 -0.09514773678945107 0.6818730994071526 -0.026608709459077173 0.19408737582659635 -0.22236547956835986 0.05460326029868597 51.06425642382119 33.446029346583416 19.426244744884553 -27.840365028707016 -36.745219036469265 76.14102275395621 -1.160158323336912 -12.389436376063394 -1.7364447556644538 -0.5268751363243772 -0.6030431114316851 -0.2363155539787291 -0.21677857159027453 0.1898266984862571 -0.4945003598236341 0.4128221829642713 0.20405520982701017 -0.2348896185873567 7.2889063822181 5.038554991750713 0.3576312662628064 0.14605100223944048 -0.2920474696872266 0.12602827600712163 1.8315120242877458 0.36964252744424403 -0.10017316853320694 -0.3718996381606688 0.5321694934264891 -0.06562861969200799 9.582927867804433 0.8570062467197139 -0.05313476295702662 0.15780373008862256 -0.3097148211925224 -0.0979759420339388 2.305022572461696 -0.8533135689779701 -0.2030991167453406 -0.28607644360960743 0.19986766353555765 0.564133711525091 -6.681882284356503 -3.317058745415067 -98.6831946755587 24.28753797154004 -24.50522463812481 -58.05605469978561 0.6513314816466175 -33.728696725384395 5.820493404067167 -0.21500789840880163 0.3674705806490329 0.6071502429178313 -0.30424981608286594 0.16512553279631756 0.416928087150801 -0.13000454000155331 -0.44850063658918493 0.7019575908266924 -7.198947668207154 5.0451644804331695 -0.30787579275849647 -0.08861001845413237 -0.583760046661711 0.051099046419245474 -2.715712882631277 0.7969086395123882 -0.11801286225312656 -0.23396898379243303 0.36203385679140854 0.23257175653991585 -10.033568381316242 0.40158593481021854 -0.4230496441944249 -0.5278024412259122 -0.3090004527744478 -0.3138651216086572 -1.7254443091193252 -0.8338634313775951 0.009533396616603969 0.09166167227010003 0.16592055614353646 0.13980607490393318 -70.21849059255727 -65.96453949444661 -57.8263759285656 -173.02612231918485 82.12777918412075 174.05541816672743 -8.75943330391715 -27.42495121583955 -13.18862656556283 0.025863525148458206 0.20319942180856193 -0.1312174321877595 77.27393940139704 -46.633782501706136 68.68274304824742 174.5743076379733 78.80578007750167 -175.87522644842895 7.679195344223676 -23.162935371866393 11.762493312147923
-19.69658974558115 50.50702691078186 -19.325709529221058 -0.8044936179465403 0.4795454471924796 4.066501252094716 -4.288962220909323 22.188395443352512 2.961683149125657 1.9133624499802397 -13.530344344833154 0.9982119767949709 1.8535818595999378 12.571729002369155 10.40323187957567 -3.7735117499105564 -28.48782939598379 18.793004246554332 0.004797460839993487 0.2643630054338724 -0.4174907773445337 -0.09981531731350853 0.7741194999032291 -0.07975686599017937 0.23152364266743625 -0.27418185593301536 -0.010281295660613754 44.39642768056881 32.96847276509988 29.452472380390322 -27.92573897823759 -35.48964243681874 74.4555506328505 -0.7936770529004731 -6.520763244477779 -1.077166722444497 -0.3897728024755641 -0.6329616878738681 -0.31767927533200685 -0.3324819761302905 0.2698150438562764 -0.47591157311062127 0.3745220039151306 0.10620154418747045 -0.143341071325385 7.268569493964387 5.077287713873386 0.3081367273291321 0.1710415971954593 -0.3433666296246463 0.2564712287760252 1.8923557763010423 0.27187338539568323 0.09186208229334436 -0.2079331564499907 0.45725875337413957 -0.059082737146197016 9.89341033822664 0.6373318883647656 -0.19752432168086148 0.23310496486242643 -0.48299714732256904 0.007899300538104864 2.1914337518000337 -0.9309181783276549 0.027073669250740503 -0.3713699783348755 0.1956280904125367 0.5888552610608347 -1.3695660535956848 -4.943388258497633 -101.79728965403179 26.241269187392582 -29.86916856127446 -67.66494240907797 1.6424560165997895 -37.09476762762301 5.966672258910134 -0.2677446427641163 0.39427053540487045 0.39560263573643445 -0.4280351486800053 0.14679346514656202 0.3784310065544935 -0.015077215705980022 -0.44335939845444294 0.4908385780157139 -7.377965218805896 5.175562183198822 -0.36248336861616 -0.11280425604161004 -0.5843784989467146 -0.04959266954214032 -2.888788595538931 0.8453972196473666 -0.281587568581881 -0.2418201795216569 0.25395763912018116 0.19148112504970757 -10.04358143863948 0.29254324537143434 -0.25697092648292036 -0.35545849237437543 -0.1892132354409989 -0.41372440826494766 -1.7868072622312487 -0.6887524339226777 0.21824444758003564 0.20544526004481353 0.19499437692360644 0.2895438851912996 -68.37565091297448 -65.23473378163075 -55.80152195288571 -173.0759690397476 83.2412912641296 174.11238194440534 -8.598877754644954 -26.993127873491126 -13.51822075905638 -0.08239443958771499 0.3094143995907476 -0.12337103893529579 75.84738609134818 -48.4151777995155 67.29555894857451 174.9852118184413 80.66297681471983 -176.19606775450114 7.558569934613019 -22.35932604997396 11.676656617301079
